<svg xmlns="http://www.w3.org/2000/svg" xmlns:xlink="http://www.w3.org/1999/xlink" width="131.712" height="121.648" viewBox="0 0 131.712 121.648">
  <defs>
    <clipPath id="clip-path">
      <rect id="Rectangle_173" data-name="Rectangle 173" width="131.712" height="121.648" fill="#d6d6c8"/>
    </clipPath>
  </defs>
  <g id="Group_1209" data-name="Group 1209" transform="translate(0 0)">
    <g id="Group_1191" data-name="Group 1191" transform="translate(0 0)" clip-path="url(#clip-path)">
      <path id="Path_852" data-name="Path 852" d="M3.136,27.816A3.136,3.136,0,1,0,0,24.679a3.137,3.137,0,0,0,3.136,3.136" transform="translate(0 24.454)" fill="#d6d6c8"/>
      <path id="Path_853" data-name="Path 853" d="M3.136,17.044A3.136,3.136,0,1,0,0,13.907a3.137,3.137,0,0,0,3.136,3.136" transform="translate(0 12.227)" fill="#d6d6c8"/>
      <path id="Path_854" data-name="Path 854" d="M3.136,6.273A3.136,3.136,0,1,0,0,3.136,3.137,3.137,0,0,0,3.136,6.273" transform="translate(0 0.001)" fill="#d6d6c8"/>
      <path id="Path_855" data-name="Path 855" d="M14.886,27.816a3.136,3.136,0,1,0-3.136-3.136,3.137,3.137,0,0,0,3.136,3.136" transform="translate(13.337 24.454)" fill="#d6d6c8"/>
      <path id="Path_856" data-name="Path 856" d="M14.886,17.044a3.136,3.136,0,1,0-3.136-3.136,3.137,3.137,0,0,0,3.136,3.136" transform="translate(13.337 12.227)" fill="#d6d6c8"/>
      <path id="Path_857" data-name="Path 857" d="M14.886,6.273A3.136,3.136,0,1,0,11.75,3.136a3.137,3.137,0,0,0,3.136,3.136" transform="translate(13.337 0.001)" fill="#d6d6c8"/>
      <path id="Path_858" data-name="Path 858" d="M26.637,27.816A3.136,3.136,0,1,0,23.5,24.679a3.137,3.137,0,0,0,3.136,3.136" transform="translate(26.675 24.454)" fill="#d6d6c8"/>
      <path id="Path_859" data-name="Path 859" d="M26.637,17.044A3.136,3.136,0,1,0,23.5,13.907a3.137,3.137,0,0,0,3.136,3.136" transform="translate(26.675 12.227)" fill="#d6d6c8"/>
      <path id="Path_860" data-name="Path 860" d="M26.637,6.273A3.136,3.136,0,1,0,23.5,3.136a3.137,3.137,0,0,0,3.136,3.136" transform="translate(26.675 0.001)" fill="#d6d6c8"/>
      <path id="Path_861" data-name="Path 861" d="M38.39,27.816a3.136,3.136,0,1,0-3.139-3.136,3.137,3.137,0,0,0,3.139,3.136" transform="translate(40.012 24.454)" fill="#d6d6c8"/>
      <path id="Path_862" data-name="Path 862" d="M38.39,17.044a3.136,3.136,0,1,0-3.139-3.136,3.137,3.137,0,0,0,3.139,3.136" transform="translate(40.012 12.227)" fill="#d6d6c8"/>
      <path id="Path_863" data-name="Path 863" d="M38.39,6.273a3.136,3.136,0,1,0-3.139-3.136A3.137,3.137,0,0,0,38.39,6.273" transform="translate(40.012 0.001)" fill="#d6d6c8"/>
      <path id="Path_864" data-name="Path 864" d="M50.138,27.816A3.136,3.136,0,1,0,47,24.679a3.137,3.137,0,0,0,3.136,3.136" transform="translate(53.35 24.454)" fill="#d6d6c8"/>
      <path id="Path_865" data-name="Path 865" d="M50.138,17.044A3.136,3.136,0,1,0,47,13.907a3.137,3.137,0,0,0,3.136,3.136" transform="translate(53.35 12.227)" fill="#d6d6c8"/>
      <path id="Path_866" data-name="Path 866" d="M50.138,6.273A3.136,3.136,0,1,0,47,3.136a3.137,3.137,0,0,0,3.136,3.136" transform="translate(53.35 0.001)" fill="#d6d6c8"/>
      <path id="Path_867" data-name="Path 867" d="M61.891,27.816a3.136,3.136,0,1,0-3.139-3.136,3.137,3.137,0,0,0,3.139,3.136" transform="translate(66.687 24.454)" fill="#d6d6c8"/>
      <path id="Path_868" data-name="Path 868" d="M61.891,17.044a3.136,3.136,0,1,0-3.139-3.136,3.137,3.137,0,0,0,3.139,3.136" transform="translate(66.687 12.227)" fill="#d6d6c8"/>
      <path id="Path_869" data-name="Path 869" d="M61.891,6.273a3.136,3.136,0,1,0-3.139-3.136,3.137,3.137,0,0,0,3.139,3.136" transform="translate(66.687 0.001)" fill="#d6d6c8"/>
      <path id="Path_870" data-name="Path 870" d="M3.136,60.311A3.136,3.136,0,1,0,0,57.174a3.137,3.137,0,0,0,3.136,3.136" transform="translate(0 61.338)" fill="#d6d6c8"/>
      <path id="Path_871" data-name="Path 871" d="M3.136,49.539A3.136,3.136,0,1,0,0,46.4a3.137,3.137,0,0,0,3.136,3.136" transform="translate(0 49.111)" fill="#d6d6c8"/>
      <path id="Path_872" data-name="Path 872" d="M3.136,38.768A3.136,3.136,0,1,0,0,35.631a3.137,3.137,0,0,0,3.136,3.136" transform="translate(0 36.885)" fill="#d6d6c8"/>
      <path id="Path_873" data-name="Path 873" d="M14.886,60.311a3.136,3.136,0,1,0-3.136-3.136,3.137,3.137,0,0,0,3.136,3.136" transform="translate(13.337 61.338)" fill="#d6d6c8"/>
      <path id="Path_874" data-name="Path 874" d="M14.886,49.539A3.136,3.136,0,1,0,11.75,46.4a3.137,3.137,0,0,0,3.136,3.136" transform="translate(13.337 49.111)" fill="#d6d6c8"/>
      <path id="Path_875" data-name="Path 875" d="M14.886,38.768a3.136,3.136,0,1,0-3.136-3.136,3.137,3.137,0,0,0,3.136,3.136" transform="translate(13.337 36.885)" fill="#d6d6c8"/>
      <path id="Path_876" data-name="Path 876" d="M26.637,60.311A3.136,3.136,0,1,0,23.5,57.174a3.137,3.137,0,0,0,3.136,3.136" transform="translate(26.675 61.338)" fill="#d6d6c8"/>
      <path id="Path_877" data-name="Path 877" d="M26.637,49.539A3.136,3.136,0,1,0,23.5,46.4a3.137,3.137,0,0,0,3.136,3.136" transform="translate(26.675 49.111)" fill="#d6d6c8"/>
      <path id="Path_878" data-name="Path 878" d="M26.637,38.768A3.136,3.136,0,1,0,23.5,35.631a3.137,3.137,0,0,0,3.136,3.136" transform="translate(26.675 36.885)" fill="#d6d6c8"/>
      <path id="Path_879" data-name="Path 879" d="M38.39,60.311a3.136,3.136,0,1,0-3.139-3.136,3.137,3.137,0,0,0,3.139,3.136" transform="translate(40.012 61.338)" fill="#d6d6c8"/>
      <path id="Path_880" data-name="Path 880" d="M38.39,49.539A3.136,3.136,0,1,0,35.251,46.4a3.137,3.137,0,0,0,3.139,3.136" transform="translate(40.012 49.111)" fill="#d6d6c8"/>
      <path id="Path_881" data-name="Path 881" d="M38.39,38.768a3.136,3.136,0,1,0-3.139-3.136,3.137,3.137,0,0,0,3.139,3.136" transform="translate(40.012 36.885)" fill="#d6d6c8"/>
      <path id="Path_882" data-name="Path 882" d="M50.138,60.311A3.136,3.136,0,1,0,47,57.174a3.137,3.137,0,0,0,3.136,3.136" transform="translate(53.35 61.338)" fill="#d6d6c8"/>
      <path id="Path_883" data-name="Path 883" d="M50.138,49.539A3.136,3.136,0,1,0,47,46.4a3.137,3.137,0,0,0,3.136,3.136" transform="translate(53.35 49.111)" fill="#d6d6c8"/>
      <path id="Path_884" data-name="Path 884" d="M50.138,38.768A3.136,3.136,0,1,0,47,35.631a3.137,3.137,0,0,0,3.136,3.136" transform="translate(53.35 36.885)" fill="#d6d6c8"/>
      <path id="Path_885" data-name="Path 885" d="M61.891,60.311a3.136,3.136,0,1,0-3.139-3.136,3.137,3.137,0,0,0,3.139,3.136" transform="translate(66.687 61.338)" fill="#d6d6c8"/>
      <path id="Path_886" data-name="Path 886" d="M61.891,49.539A3.136,3.136,0,1,0,58.752,46.4a3.137,3.137,0,0,0,3.139,3.136" transform="translate(66.687 49.111)" fill="#d6d6c8"/>
      <path id="Path_887" data-name="Path 887" d="M61.891,38.768a3.136,3.136,0,1,0-3.139-3.136,3.137,3.137,0,0,0,3.139,3.136" transform="translate(66.687 36.885)" fill="#d6d6c8"/>
    </g>
  </g>
</svg>
